<?xml version="1.0" standalone="no"?>
<!DOCTYPE svg PUBLIC "-//W3C//DTD SVG 20010904//EN"
 "http://www.w3.org/TR/2001/REC-SVG-20010904/DTD/svg10.dtd">
<svg version="1.0" xmlns="http://www.w3.org/2000/svg"
 width="124.000000pt" height="124.000000pt" viewBox="0 0 124.000000 124.000000"
 preserveAspectRatio="xMidYMid meet">
<metadata>
Created by potrace 1.11, written by Peter Selinger 2001-2013
</metadata>
<g transform="translate(0.000000,124.000000) scale(0.100000,-0.100000)"
fill="#000000" stroke="none">
<path d="M635 1178 c-41 -22 -75 -63 -81 -96 -9 -46 11 -106 43 -132 14 -11
24 -22 22 -23 -2 -2 -25 -15 -51 -30 -82 -47 -118 -112 -118 -211 0 -37 7 -76
19 -101 23 -52 89 -111 140 -126 40 -12 41 -13 41 -56 0 -23 -4 -43 -10 -43
-13 0 -40 -54 -40 -79 0 -11 12 -34 26 -51 24 -28 26 -37 21 -85 -4 -43 -2
-56 12 -69 22 -20 35 -20 55 0 12 12 15 27 10 68 -6 48 -4 55 20 79 36 36 36
94 1 127 -18 17 -25 34 -25 59 0 34 3 37 41 49 57 18 105 57 137 111 23 38 27
58 27 116 -1 102 -45 175 -132 219 -18 9 -33 19 -33 21 0 7 39 45 46 45 3 0
46 -23 95 -52 75 -44 89 -56 89 -78 0 -55 48 -99 108 -100 93 0 138 106 73
171 -35 34 -97 43 -128 17 -9 -7 -42 7 -112 48 -85 49 -101 63 -107 89 -21 97
-116 154 -189 113z m15 -351 c0 -24 -6 -35 -22 -42 -13 -6 -31 -27 -42 -48
-25 -53 -15 -98 30 -135 29 -24 35 -35 32 -60 l-3 -30 -34 16 c-92 45 -128
159 -77 245 24 43 77 86 104 87 7 0 12 -13 12 -33z m131 10 c55 -37 79 -81 79
-146 0 -64 -28 -120 -76 -151 -43 -29 -64 -26 -64 9 0 21 6 32 21 36 29 10 59
64 59 109 0 33 -7 45 -40 77 -26 25 -40 47 -40 64 0 31 17 32 61 2z"/>
<path d="M176 785 c-57 -20 -87 -46 -113 -95 -48 -91 -18 -199 71 -255 104
-64 232 -20 280 97 23 53 20 97 -10 156 -42 85 -143 128 -228 97z m145 -94
c35 -35 39 -44 39 -90 0 -44 -5 -56 -33 -87 -66 -72 -175 -52 -211 38 -37 92
21 177 123 178 37 0 49 -5 82 -39z"/>
<path d="M189 652 c-47 -39 -16 -122 45 -122 13 0 32 10 44 23 61 65 -20 154
-89 99z"/>
<path d="M1006 607 c-23 -17 -18 -65 9 -83 46 -31 97 35 59 77 -20 22 -43 24
-68 6z"/>
<path d="M496 429 c-48 -38 -23 -109 39 -109 37 0 65 28 65 66 0 23 -42 64
-65 64 -7 0 -24 -9 -39 -21z"/>
</g>
</svg>
